# xmcd
#
# Track frame offsets:
#	14591
#	23016
#	34063
#	50786
#	65852
#	78283
#	97832
#	115384
#	129018
#	141305
#
# Disc length: 2261 seconds
#
# Revision: 0
# Processed by: cddbd v1.5.1PL0 Copyright (c) Steve Scherf et al.
# Submitted via: dBpowerAMP V4.0
#
DISCID=8f08130a
DTITLE=Love Olzon - Skärsände
DYEAR=2005
DGENRE=
TTITLE0=Den andra stranden
TTITLE1=En dag kommer jag bli fri
TTITLE2=Mexikansk dröm
TTITLE3=Jag vill ha dig nu
TTITLE4=Kvar här nånstans
TTITLE5=Skärsände
TTITLE6=Skanstull 01.29
TTITLE7=Söndag morgon
TTITLE8=Det är inte mitt fel
TTITLE9=Nån som sjunger
EXTD=
EXTT0=
EXTT1=
EXTT2=
EXTT3=
EXTT4=
EXTT5=
EXTT6=
EXTT7=
EXTT8=
EXTT9=
PLAYORDER=
